{
  "accessors": [
    {
      "bufferView": 2,
      "componentType": 5126,
      "count": 252,
      "max": [
        489.5509948730469,
        1508.30322265625,
        47.40724563598633
      ],
      "min": [
        -489.55096435546875,
        -13.5809326171875,
        -47.4072380065918
      ],
      "type": "VEC3"
    },
    {
      "bufferView": 2,
      "byteOffset": 3024,
      "componentType": 5126,
      "count": 252,
      "max": [
        0.9238794445991516,
        1.0,
        1.0
      ],
      "min": [
        -0.9238794445991516,
        -1.0,
        -1.0
      ],
      "type": "VEC3"
    },
    {
      "bufferView": 3,
      "componentType": 5126,
      "count": 252,
      "max": [
        1.0,
        1.0,
        0.9981623888015747,
        1.0
      ],
      "min": [
        -1.0,
        -1.0,
        -0.9981803894042969,
        1.0
      ],
      "type": "VEC4"
    },
    {
      "bufferView": 1,
      "componentType": 5126,
      "count": 252,
      "max": [
        0.9857128858566284,
        1.0
      ],
      "min": [
        0.0,
        0.0
      ],
      "type": "VEC2"
    },
    {
      "bufferView": 0,
      "componentType": 5125,
      "count": 480,
      "type": "SCALAR"
    },
    {
      "bufferView": 2,
      "byteOffset": 6048,
      "componentType": 5126,
      "count": 272,
      "max": [
        -115.83143615722656,
        1300.140380859375,
        20.94134521484375
      ],
      "min": [
        -164.30763244628906,
        1258.935302734375,
        -25.16236114501953
      ],
      "type": "VEC3"
    },
    {
      "bufferView": 2,
      "byteOffset": 9312,
      "componentType": 5126,
      "count": 272,
      "max": [
        0.9510592818260193,
        1.0,
        1.0
      ],
      "min": [
        -0.9510588049888611,
        -1.0,
        -1.0
      ],
      "type": "VEC3"
    },
    {
      "bufferView": 3,
      "byteOffset": 4032,
      "componentType": 5126,
      "count": 272,
      "max": [
        1.0,
        0.9993706941604614,
        0.6883372068405151,
        1.0
      ],
      "min": [
        -0.9014904499053955,
        -0.9992893934249878,
        -0.6999848484992981,
        1.0
      ],
      "type": "VEC4"
    },
    {
      "bufferView": 1,
      "byteOffset": 2016,
      "componentType": 5126,
      "count": 272,
      "max": [
        0.6389467120170593,
        0.4564228653907776
      ],
      "min": [
        0.3241121768951416,
        0.1521192491054535
      ],
      "type": "VEC2"
    },
    {
      "bufferView": 0,
      "byteOffset": 1920,
      "componentType": 5125,
      "count": 600,
      "type": "SCALAR"
    },
    {
      "bufferView": 2,
      "byteOffset": 12576,
      "componentType": 5126,
      "count": 272,
      "max": [
        -285.35498046875,
        1300.140380859375,
        20.94134521484375
      ],
      "min": [
        -333.8311767578125,
        1258.935302734375,
        -25.16236114501953
      ],
      "type": "VEC3"
    },
    {
      "bufferView": 2,
      "byteOffset": 15840,
      "componentType": 5126,
      "count": 272,
      "max": [
        0.9510590434074402,
        1.0,
        1.0
      ],
      "min": [
        -0.9510588049888611,
        -1.0,
        -1.0
      ],
      "type": "VEC3"
    },
    {
      "bufferView": 3,
      "byteOffset": 8384,
      "componentType": 5126,
      "count": 272,
      "max": [
        1.0,
        0.999370813369751,
        0.6883373856544495,
        1.0
      ],
      "min": [
        -0.9014905691146851,
        -0.9992893934249878,
        -0.6999842524528503,
        1.0
      ],
      "type": "VEC4"
    },
    {
      "bufferView": 1,
      "byteOffset": 4192,
      "componentType": 5126,
      "count": 272,
      "max": [
        0.6389467120170593,
        0.4564228653907776
      ],
      "min": [
        0.3241121768951416,
        0.1521192491054535
      ],
      "type": "VEC2"
    },
    {
      "bufferView": 0,
      "byteOffset": 4320,
      "componentType": 5125,
      "count": 600,
      "type": "SCALAR"
    },
    {
      "bufferView": 2,
      "byteOffset": 19104,
      "componentType": 5126,
      "count": 272,
      "max": [
        333.8309326171875,
        1300.140380859375,
        20.94134521484375
      ],
      "min": [
        285.354736328125,
        1258.935302734375,
        -25.16236114501953
      ],
      "type": "VEC3"
    },
    {
      "bufferView": 2,
      "byteOffset": 22368,
      "componentType": 5126,
      "count": 272,
      "max": [
        0.9510590434074402,
        1.0,
        1.0
      ],
      "min": [
        -0.9510588049888611,
        -1.0,
        -1.0
      ],
      "type": "VEC3"
    },
    {
      "bufferView": 3,
      "byteOffset": 12736,
      "componentType": 5126,
      "count": 272,
      "max": [
        1.0,
        0.9993707537651062,
        0.6883371472358704,
        1.0
      ],
      "min": [
        -0.9014905691146851,
        -0.9992893934249878,
        -0.6999836564064026,
        1.0
      ],
      "type": "VEC4"
    },
    {
      "bufferView": 1,
      "byteOffset": 6368,
      "componentType": 5126,
      "count": 272,
      "max": [
        0.6389467120170593,
        0.4564228653907776
      ],
      "min": [
        0.3241121768951416,
        0.1521192491054535
      ],
      "type": "VEC2"
    },
    {
      "bufferView": 0,
      "byteOffset": 6720,
      "componentType": 5125,
      "count": 600,
      "type": "SCALAR"
    },
    {
      "bufferView": 2,
      "byteOffset": 25632,
      "componentType": 5126,
      "count": 272,
      "max": [
        148.02696228027344,
        1300.140380859375,
        20.94134521484375
      ],
      "min": [
        99.55076599121094,
        1258.935302734375,
        -25.16236114501953
      ],
      "type": "VEC3"
    },
    {
      "bufferView": 2,
      "byteOffset": 28896,
      "componentType": 5126,
      "count": 272,
      "max": [
        0.9510595798492432,
        1.0,
        1.0
      ],
      "min": [
        -0.9510588049888611,
        -1.0,
        -1.0
      ],
      "type": "VEC3"
    },
    {
      "bufferView": 3,
      "byteOffset": 17088,
      "componentType": 5126,
      "count": 272,
      "max": [
        1.0,
        0.9993707537651062,
        0.6883372068405151,
        1.0
      ],
      "min": [
        -0.9014904499053955,
        -0.9992892742156982,
        -0.6999847888946533,
        1.0
      ],
      "type": "VEC4"
    },
    {
      "bufferView": 1,
      "byteOffset": 8544,
      "componentType": 5126,
      "count": 272,
      "max": [
        0.6389467120170593,
        0.4564228653907776
      ],
      "min": [
        0.3241121768951416,
        0.1521192491054535
      ],
      "type": "VEC2"
    },
    {
      "bufferView": 0,
      "byteOffset": 9120,
      "componentType": 5125,
      "count": 600,
      "type": "SCALAR"
    },
    {
      "bufferView": 2,
      "byteOffset": 32160,
      "componentType": 5126,
      "count": 272,
      "max": [
        168.7113800048828,
        1462.98681640625,
        20.94134521484375
      ],
      "min": [
        120.23518371582031,
        1421.78173828125,
        -25.16236114501953
      ],
      "type": "VEC3"
    },
    {
      "bufferView": 2,
      "byteOffset": 35424,
      "componentType": 5126,
      "count": 272,
      "max": [
        0.9510599374771118,
        1.0,
        1.0
      ],
      "min": [
        -0.9510591626167297,
        -1.0,
        -1.0
      ],
      "type": "VEC3"
    },
    {
      "bufferView": 3,
      "byteOffset": 21440,
      "componentType": 5126,
      "count": 272,
      "max": [
        1.0,
        0.9993707537651062,
        0.6883372068405151,
        1.0
      ],
      "min": [
        -0.9014904499053955,
        -0.9992893934249878,
        -0.6999839544296265,
        1.0
      ],
      "type": "VEC4"
    },
    {
      "bufferView": 1,
      "byteOffset": 10720,
      "componentType": 5126,
      "count": 272,
      "max": [
        0.6389467120170593,
        0.4564228653907776
      ],
      "min": [
        0.3241121768951416,
        0.1521192491054535
      ],
      "type": "VEC2"
    },
    {
      "bufferView": 0,
      "byteOffset": 11520,
      "componentType": 5125,
      "count": 600,
      "type": "SCALAR"
    },
    {
      "bufferView": 2,
      "byteOffset": 38688,
      "componentType": 5126,
      "count": 272,
      "max": [
        -126.47972869873047,
        1462.98681640625,
        20.94134521484375
      ],
      "min": [
        -174.95591735839844,
        1421.78173828125,
        -25.16236114501953
      ],
      "type": "VEC3"
    },
    {
      "bufferView": 2,
      "byteOffset": 41952,
      "componentType": 5126,
      "count": 272,
      "max": [
        0.9510579705238342,
        1.0,
        1.0
      ],
      "min": [
        -0.9510591626167297,
        -1.0,
        -1.0
      ],
      "type": "VEC3"
    },
    {
      "bufferView": 3,
      "byteOffset": 25792,
      "componentType": 5126,
      "count": 272,
      "max": [
        1.0,
        0.9993707537651062,
        0.6883372068405151,
        1.0
      ],
      "min": [
        -0.9014904499053955,
        -0.9992892742156982,
        -0.6999836564064026,
        1.0
      ],
      "type": "VEC4"
    },
    {
      "bufferView": 1,
      "byteOffset": 12896,
      "componentType": 5126,
      "count": 272,
      "max": [
        0.6389467120170593,
        0.4564228653907776
      ],
      "min": [
        0.3241121768951416,
        0.1521192491054535
      ],
      "type": "VEC2"
    },
    {
      "bufferView": 0,
      "byteOffset": 13920,
      "componentType": 5125,
      "count": 600,
      "type": "SCALAR"
    }
  ],
  "asset": {
    "extras": {
      "author": "noortjeschuur (https://sketchfab.com/noortjeschuur)",
      "license": "CC-BY-4.0 (http://creativecommons.org/licenses/by/4.0/)",
      "source": "https://sketchfab.com/3d-models/electricity-pole-e459ac4805104fe59a46742d5f937838",
      "title": "electricity pole"
    },
    "generator": "Sketchfab-12.67.0",
    "version": "2.0"
  },
  "bufferViews": [
    {
      "buffer": 0,
      "byteLength": 16320,
      "name": "floatBufferViews",
      "target": 34963
    },
    {
      "buffer": 0,
      "byteLength": 15072,
      "byteOffset": 16320,
      "byteStride": 8,
      "name": "floatBufferViews",
      "target": 34962
    },
    {
      "buffer": 0,
      "byteLength": 45216,
      "byteOffset": 31392,
      "byteStride": 12,
      "name": "floatBufferViews",
      "target": 34962
    },
    {
      "buffer": 0,
      "byteLength": 30144,
      "byteOffset": 76608,
      "byteStride": 16,
      "name": "floatBufferViews",
      "target": 34962
    }
  ],
  "buffers": [
    {
      "byteLength": 106752,
      "uri": "scene.bin"
    }
  ],
  "images": [
    {
      "uri": "textures/lambert1_baseColor.png"
    },
    {
      "uri": "textures/lambert1_metallicRoughness.png"
    },
    {
      "uri": "textures/lambert1_normal.png"
    }
  ],
  "materials": [
    {
      "doubleSided": true,
      "name": "lambert1",
      "normalTexture": {
        "index": 2
      },
      "pbrMetallicRoughness": {
        "baseColorTexture": {
          "index": 0
        },
        "metallicRoughnessTexture": {
          "index": 1
        },
        "roughnessFactor": 0.6
      }
    }
  ],
  "meshes": [
    {
      "name": "pCylinder1_lambert1_0",
      "primitives": [
        {
          "attributes": {
            "NORMAL": 1,
            "POSITION": 0,
            "TANGENT": 2,
            "TEXCOORD_0": 3
          },
          "indices": 4,
          "material": 0,
          "mode": 4
        }
      ]
    },
    {
      "name": "pCylinder2_lambert1_0",
      "primitives": [
        {
          "attributes": {
            "NORMAL": 6,
            "POSITION": 5,
            "TANGENT": 7,
            "TEXCOORD_0": 8
          },
          "indices": 9,
          "material": 0,
          "mode": 4
        }
      ]
    },
    {
      "name": "pCylinder3_lambert1_0",
      "primitives": [
        {
          "attributes": {
            "NORMAL": 11,
            "POSITION": 10,
            "TANGENT": 12,
            "TEXCOORD_0": 13
          },
          "indices": 14,
          "material": 0,
          "mode": 4
        }
      ]
    },
    {
      "name": "pCylinder4_lambert1_0",
      "primitives": [
        {
          "attributes": {
            "NORMAL": 16,
            "POSITION": 15,
            "TANGENT": 17,
            "TEXCOORD_0": 18
          },
          "indices": 19,
          "material": 0,
          "mode": 4
        }
      ]
    },
    {
      "name": "pCylinder5_lambert1_0",
      "primitives": [
        {
          "attributes": {
            "NORMAL": 21,
            "POSITION": 20,
            "TANGENT": 22,
            "TEXCOORD_0": 23
          },
          "indices": 24,
          "material": 0,
          "mode": 4
        }
      ]
    },
    {
      "name": "pCylinder6_lambert1_0",
      "primitives": [
        {
          "attributes": {
            "NORMAL": 26,
            "POSITION": 25,
            "TANGENT": 27,
            "TEXCOORD_0": 28
          },
          "indices": 29,
          "material": 0,
          "mode": 4
        }
      ]
    },
    {
      "name": "pCylinder7_lambert1_0",
      "primitives": [
        {
          "attributes": {
            "NORMAL": 31,
            "POSITION": 30,
            "TANGENT": 32,
            "TEXCOORD_0": 33
          },
          "indices": 34,
          "material": 0,
          "mode": 4
        }
      ]
    }
  ],
  "nodes": [
    {
      "children": [
        1
      ],
      "matrix": [
        1.0,
        0.0,
        0.0,
        0.0,
        0.0,
        2.220446049250313e-16,
        -1.0,
        0.0,
        0.0,
        1.0,
        2.220446049250313e-16,
        0.0,
        0.0,
        0.0,
        0.0,
        1.0
      ],
      "name": "Sketchfab_model"
    },
    {
      "children": [
        2
      ],
      "matrix": [
        1.0,
        0.0,
        0.0,
        0.0,
        0.0,
        0.0,
        1.0,
        0.0,
        0.0,
        -1.0,
        0.0,
        0.0,
        0.0,
        0.0,
        0.0,
        1.0
      ],
      "name": "44339db8f3be4d418e51c25a9998824c.fbx"
    },
    {
      "children": [
        3,
        5,
        7,
        9,
        11,
        13,
        15
      ],
      "name": "RootNode"
    },
    {
      "children": [
        4
      ],
      "matrix": [
        0.009999999776482582,
        0.0,
        0.0,
        0.0,
        0.0,
        0.009999999776482582,
        0.0,
        0.0,
        0.0,
        0.0,
        0.009999999776482582,
        0.0,
        0.0,
        0.0,
        0.0,
        1.0
      ],
      "name": "pCylinder1"
    },
    {
      "mesh": 0,
      "name": "pCylinder1_lambert1_0"
    },
    {
      "children": [
        6
      ],
      "matrix": [
        0.009999999776482582,
        0.0,
        0.0,
        0.0,
        0.0,
        0.009999999776482582,
        0.0,
        0.0,
        0.0,
        0.0,
        0.009999999776482582,
        0.0,
        0.0,
        0.0,
        0.0,
        1.0
      ],
      "name": "pCylinder2"
    },
    {
      "mesh": 1,
      "name": "pCylinder2_lambert1_0"
    },
    {
      "children": [
        8
      ],
      "matrix": [
        0.009999999776482582,
        0.0,
        0.0,
        0.0,
        0.0,
        0.009999999776482582,
        0.0,
        0.0,
        0.0,
        0.0,
        0.009999999776482582,
        0.0,
        0.0,
        0.0,
        0.0,
        1.0
      ],
      "name": "pCylinder3"
    },
    {
      "mesh": 2,
      "name": "pCylinder3_lambert1_0"
    },
    {
      "children": [
        10
      ],
      "matrix": [
        0.009999999776482582,
        0.0,
        0.0,
        0.0,
        0.0,
        0.009999999776482582,
        0.0,
        0.0,
        0.0,
        0.0,
        0.009999999776482582,
        0.0,
        0.0,
        0.0,
        0.0,
        1.0
      ],
      "name": "pCylinder4"
    },
    {
      "mesh": 3,
      "name": "pCylinder4_lambert1_0"
    },
    {
      "children": [
        12
      ],
      "matrix": [
        0.009999999776482582,
        0.0,
        0.0,
        0.0,
        0.0,
        0.009999999776482582,
        0.0,
        0.0,
        0.0,
        0.0,
        0.009999999776482582,
        0.0,
        -1.4210854715202004e-14,
        0.0,
        0.0,
        1.0
      ],
      "name": "pCylinder5"
    },
    {
      "mesh": 4,
      "name": "pCylinder5_lambert1_0"
    },
    {
      "children": [
        14
      ],
      "matrix": [
        0.009999999776482582,
        0.0,
        0.0,
        0.0,
        0.0,
        0.009999999776482582,
        0.0,
        0.0,
        0.0,
        0.0,
        0.009999999776482582,
        0.0,
        0.0,
        0.0,
        0.0,
        1.0
      ],
      "name": "pCylinder6"
    },
    {
      "mesh": 5,
      "name": "pCylinder6_lambert1_0"
    },
    {
      "children": [
        16
      ],
      "matrix": [
        0.009999999776482582,
        0.0,
        0.0,
        0.0,
        0.0,
        0.009999999776482582,
        0.0,
        0.0,
        0.0,
        0.0,
        0.009999999776482582,
        0.0,
        0.0,
        0.0,
        0.0,
        1.0
      ],
      "name": "pCylinder7"
    },
    {
      "mesh": 6,
      "name": "pCylinder7_lambert1_0"
    }
  ],
  "samplers": [
    {
      "magFilter": 9729,
      "minFilter": 9987,
      "wrapS": 10497,
      "wrapT": 10497
    }
  ],
  "scene": 0,
  "scenes": [
    {
      "name": "Sketchfab_Scene",
      "nodes": [
        0
      ]
    }
  ],
  "textures": [
    {
      "sampler": 0,
      "source": 0
    },
    {
      "sampler": 0,
      "source": 1
    },
    {
      "sampler": 0,
      "source": 2
    }
  ]
}
